# xmcd
#
# Track frame offsets: 
#        150
#        17695
#        38355
#        56267
#        71102
#        94595
#        112042
#        130702
#        143280
#        155062
#
# Disc length: 2458 seconds
#
# Revision: 0
# Processed by: cddbd v1.5.2PL0 Copyright (c) Steve Scherf et al.
# Submitted via: ExactAudioCopy v0.99pb3
#
DISCID=7709980a
DTITLE=Howlin' Wolf - The Howlin' Wolf Album
DYEAR=1969
DGENRE=Blues
TTITLE0=Spoolful
TTITLE1=Tail Dragger
TTITLE2=Smokestack Lightning
TTITLE3=Moanin' At Midnight
TTITLE4=Built For Comfort
TTITLE5=The Red Rooster
TTITLE6=Evil
TTITLE7=Down In The Bottom
TTITLE8=Three Hundred Pounds Of Joy
TTITLE9=Back Door Man
EXTD=
EXTT0=
EXTT1=
EXTT2=
EXTT3=
EXTT4=
EXTT5=
EXTT6=
EXTT7=
EXTT8=
EXTT9=
PLAYORDER=
